<?xml version="1.0" encoding="UTF-8" standalone="no"?>
<!-- Generator: Gravit.io -->

<svg
   xmlns:dc="http://purl.org/dc/elements/1.1/"
   xmlns:cc="http://creativecommons.org/ns#"
   xmlns:rdf="http://www.w3.org/1999/02/22-rdf-syntax-ns#"
   xmlns:svg="http://www.w3.org/2000/svg"
   xmlns="http://www.w3.org/2000/svg"
   xmlns:sodipodi="http://sodipodi.sourceforge.net/DTD/sodipodi-0.dtd"
   xmlns:inkscape="http://www.inkscape.org/namespaces/inkscape"
   style="isolation:isolate"
   viewBox="0 0 137.85499 127.794"
   width="137.855"
   height="127.794"
   version="1.1"
   id="svg56"
   sodipodi:docname="obolus-logo.svg"
   inkscape:version="0.92.4 (unknown)">
  <metadata
     id="metadata60">
    <rdf:RDF>
      <cc:Work
         rdf:about="">
        <dc:format>image/svg+xml</dc:format>
        <dc:type
           rdf:resource="http://purl.org/dc/dcmitype/StillImage" />
        <dc:title></dc:title>
      </cc:Work>
    </rdf:RDF>
  </metadata>
  <sodipodi:namedview
     pagecolor="#ffffff"
     bordercolor="#666666"
     borderopacity="1"
     objecttolerance="10"
     gridtolerance="10"
     guidetolerance="10"
     inkscape:pageopacity="0"
     inkscape:pageshadow="2"
     inkscape:window-width="2560"
     inkscape:window-height="1405"
     id="namedview58"
     showgrid="false"
     fit-margin-top="10"
     fit-margin-left="30"
     fit-margin-right="30"
     fit-margin-bottom="40"
     inkscape:zoom="7.6749215"
     inkscape:cx="79.998327"
     inkscape:cy="56.292611"
     inkscape:window-x="0"
     inkscape:window-y="0"
     inkscape:window-maximized="1"
     inkscape:current-layer="g52" />
  <defs
     id="defs5">
    <clipPath
       id="_clipPath_CfOnyy2eYxGU78RkvZO4UmASxXCtAlZr">
      <rect
         width="132.33701"
         height="122.998"
         id="rect2"
         x="0"
         y="0" />
    </clipPath>
  </defs>
  <g
     clip-path="url(#_clipPath_CfOnyy2eYxGU78RkvZO4UmASxXCtAlZr)"
     id="g54"
     transform="translate(4.07,10)">
    <g
       id="g52">
      <g
         id="g42">
        <g
           id="Group">
          <linearGradient
             id="_lgradient_5"
             x1="34.919804"
             y1="59.576008"
             x2="86.736366"
             y2="13.92292"
             gradientTransform="scale(1.0232995,0.97723099)"
             gradientUnits="userSpaceOnUse">
            <stop
               offset="0%"
               stop-opacity="1"
               style="stop-color:rgb(247,149,32)"
               id="stop7" />
            <stop
               offset="52.060764999999996%"
               stop-opacity="1"
               style="stop-color:rgb(249,185,108)"
               id="stop9" />
            <stop
               offset="100%"
               stop-opacity="1"
               style="stop-color:rgb(247,148,29)"
               id="stop11" />
          </linearGradient>
          <path
             d="m 76.381,1.722 v 4.44 2.819 0.848 c 1.518,0.604 2.988,1.326 4.393,2.16 0.477,0.281 0.946,0.576 1.407,0.882 0.434,0.29 0.861,0.59 1.28,0.901 0.393,0.291 0.779,0.591 1.158,0.899 0.458,0.375 0.905,0.762 1.341,1.162 0.308,0.281 0.611,0.569 0.907,0.862 0.469,0.467 0.923,0.948 1.362,1.443 0.232,0.261 0.461,0.525 0.685,0.794 0.463,0.558 0.906,1.132 1.329,1.721 0.168,0.235 0.333,0.472 0.495,0.711 0.442,0.651 0.859,1.319 1.25,2.002 0.113,0.196 0.223,0.393 0.332,0.592 0.405,0.745 0.78,1.507 1.123,2.283 0.067,0.152 0.133,0.305 0.198,0.458 0.354,0.834 0.671,1.682 0.951,2.544 0.046,0.137 0.09,0.275 0.134,0.414 0.157,0.5 0.301,1.004 0.432,1.511 l 0.018,0.006 c 0.541,2.111 0.861,4.273 0.953,6.45 h 7.624 c -0.046,-1.423 -0.17,-2.843 -0.372,-4.252 l 0.047,0.014 c -0.068,-0.382 -0.141,-0.762 -0.22,-1.142 -0.104,-0.609 -0.222,-1.216 -0.354,-1.82 -0.16,-0.704 -0.34,-1.403 -0.539,-2.097 -0.146,-0.527 -0.303,-1.051 -0.471,-1.571 -0.25,-0.751 -0.522,-1.494 -0.816,-2.229 -0.176,-0.447 -0.36,-0.892 -0.552,-1.333 -0.347,-0.78 -0.72,-1.548 -1.117,-2.303 -0.192,-0.373 -0.39,-0.742 -0.594,-1.109 -0.452,-0.798 -0.933,-1.579 -1.44,-2.343 -0.194,-0.297 -0.392,-0.592 -0.594,-0.883 -0.563,-0.8 -1.156,-1.578 -1.778,-2.333 -0.187,-0.232 -0.377,-0.462 -0.57,-0.689 -0.675,-0.783 -1.382,-1.538 -2.117,-2.265 -0.17,-0.172 -0.342,-0.342 -0.515,-0.511 C 90.964,10.009 90.147,9.293 89.3,8.613 89.152,8.49 89.002,8.369 88.852,8.249 87.956,7.55 87.03,6.89 86.076,6.271 85.958,6.193 85.839,6.116 85.72,6.039 84.722,5.405 83.695,4.818 82.644,4.277 82.541,4.224 82.438,4.171 82.334,4.118 80.418,3.157 78.425,2.355 76.377,1.722 Z M 53.337,1.773 C 52.052,2.161 50.789,2.616 49.551,3.134 V 3.062 C 49.24,3.208 48.931,3.359 48.624,3.514 48.352,3.643 48.081,3.775 47.812,3.91 46.895,4.353 45.996,4.833 45.117,5.346 44.908,5.472 44.701,5.6 44.495,5.73 43.58,6.289 42.688,6.886 41.822,7.518 c -0.157,0.119 -0.313,0.238 -0.468,0.36 -0.892,0.672 -1.755,1.382 -2.586,2.129 -0.112,0.104 -0.224,0.209 -0.335,0.315 -0.853,0.787 -1.67,1.611 -2.449,2.471 -0.118,0.133 -0.236,0.268 -0.353,0.404 -5.965,6.773 -9.393,15.407 -9.701,24.427 h 7.691 c 0.326,-7.932 3.654,-15.444 9.31,-21.015 0.182,-0.173 0.366,-0.343 0.552,-0.511 0.588,-0.557 1.197,-1.091 1.826,-1.6 0.152,-0.118 0.304,-0.233 0.457,-0.348 0.687,-0.533 1.395,-1.037 2.123,-1.511 0.319,-0.203 0.642,-0.4 0.968,-0.592 0.23,-0.142 0.463,-0.282 0.697,-0.418 V 11.623 C 50.775,10.949 52.04,10.357 53.34,9.851 V 9.015 6.162 Z M 25.962,40.169 c 0.046,1.423 0.17,2.842 0.371,4.251 l -0.052,-0.012 c 0.068,0.383 0.142,0.766 0.222,1.147 0.103,0.606 0.22,1.21 0.352,1.81 0.16,0.705 0.34,1.406 0.539,2.101 0.146,0.528 0.304,1.053 0.473,1.574 0.248,0.749 0.52,1.49 0.814,2.222 0.176,0.45 0.36,0.896 0.553,1.339 0.347,0.779 0.719,1.547 1.115,2.301 0.192,0.373 0.39,0.743 0.594,1.109 0.453,0.798 0.934,1.58 1.443,2.344 0.194,0.297 0.392,0.592 0.594,0.885 0.563,0.8 1.157,1.579 1.779,2.335 0.185,0.229 0.373,0.456 0.564,0.681 0.679,0.787 1.389,1.547 2.129,2.278 0.165,0.167 0.331,0.332 0.499,0.495 0.792,0.756 1.616,1.478 2.468,2.164 0.143,0.116 0.287,0.231 0.431,0.345 0.901,0.705 1.834,1.37 2.794,1.992 0.112,0.074 0.224,0.148 0.337,0.22 1.005,0.638 2.038,1.229 3.097,1.772 0.094,0.05 0.189,0.1 0.284,0.15 1.921,0.963 3.919,1.766 5.972,2.4 v -4.44 -2.823 -0.844 c -1.52,-0.605 -2.991,-1.327 -4.398,-2.162 -0.474,-0.281 -0.941,-0.574 -1.4,-0.88 C 47.099,64.632 46.669,64.33 46.247,64.018 45.859,63.73 45.477,63.433 45.102,63.127 44.64,62.75 44.19,62.36 43.75,61.957 43.444,61.677 43.143,61.391 42.847,61.098 42.379,60.633 41.924,60.153 41.486,59.658 41.253,59.396 41.025,59.13 40.801,58.86 40.338,58.303 39.895,57.729 39.472,57.141 39.302,56.906 39.136,56.668 38.973,56.428 38.534,55.779 38.119,55.114 37.73,54.434 37.616,54.234 37.503,54.033 37.393,53.83 36.988,53.086 36.613,52.326 36.27,51.551 36.203,51.4 36.138,51.249 36.074,51.097 35.72,50.263 35.402,49.415 35.122,48.553 c -0.046,-0.141 -0.091,-0.282 -0.135,-0.424 -0.156,-0.498 -0.3,-1 -0.431,-1.505 l -0.023,-0.006 c -0.541,-2.11 -0.86,-4.271 -0.952,-6.448 z m 70.135,0 c -0.327,7.934 -3.657,15.447 -9.315,21.018 -0.178,0.169 -0.358,0.336 -0.541,0.501 -0.592,0.561 -1.206,1.099 -1.84,1.612 -0.144,0.111 -0.289,0.221 -0.435,0.329 -0.692,0.539 -1.406,1.049 -2.141,1.528 -0.308,0.196 -0.62,0.386 -0.935,0.571 -0.24,0.148 -0.482,0.293 -0.725,0.435 v 0.007 c -1.222,0.674 -2.486,1.265 -3.786,1.77 v 0.838 2.853 4.383 c 1.284,-0.386 2.548,-0.839 3.786,-1.355 v 0.072 c 0.312,-0.147 0.622,-0.299 0.931,-0.454 0.269,-0.128 0.536,-0.258 0.802,-0.392 0.919,-0.444 1.82,-0.924 2.701,-1.438 0.208,-0.127 0.414,-0.254 0.62,-0.384 0.915,-0.559 1.807,-1.154 2.673,-1.786 0.157,-0.119 0.313,-0.239 0.468,-0.36 0.894,-0.674 1.758,-1.386 2.59,-2.135 0.109,-0.101 0.217,-0.203 0.325,-0.305 0.857,-0.79 1.679,-1.619 2.462,-2.483 0.111,-0.125 0.221,-0.251 0.33,-0.378 5.975,-6.776 9.41,-15.418 9.718,-24.447 z"
             id="path14"
             inkscape:connector-curvature="0"
             style="fill:url(#_lgradient_5)" />
          <linearGradient
             id="_lgradient_6"
             x1="57.318581"
             y1="10.054345"
             x2="109.50733"
             y2="52.76778"
             gradientTransform="scale(0.86452124,1.1567096)"
             gradientUnits="userSpaceOnUse">
            <stop
               offset="0%"
               stop-opacity="1"
               style="stop-color:rgb(196,196,196)"
               id="stop16" />
            <stop
               offset="50.670111%"
               stop-opacity="1"
               style="stop-color:rgb(240,247,255)"
               id="stop18" />
            <stop
               offset="100%"
               stop-opacity="1"
               style="stop-color:rgb(194,194,194)"
               id="stop20" />
          </linearGradient>
          <path
             d="M 67.008,0 V 6.161 7.697 9.909 C 66.293,9.854 65.576,9.826 64.859,9.824 64.141,9.833 63.424,9.869 62.709,9.931 V 7.666 6.161 0.03 c -2.387,0.132 -4.756,0.483 -7.078,1.049 v 5.082 2.853 2.341 C 43.787,15.32 35.799,26.406 35.787,38.896 c 0.016,12.486 8.003,23.567 19.844,27.53 v 2.384 2.82 5.089 c 2.321,0.575 4.691,0.934 7.078,1.075 V 71.63 70.095 67.883 c 0.715,0.055 1.432,0.083 2.15,0.084 0.717,-0.009 1.434,-0.044 2.149,-0.106 v 2.266 1.503 6.133 c 2.386,-0.132 4.755,-0.483 7.076,-1.048 V 71.63 68.78 66.438 C 85.93,62.474 93.919,51.387 93.93,38.896 93.914,26.409 85.926,15.328 74.084,11.365 V 8.982 6.161 1.075 C 71.764,0.5 69.395,0.14 67.008,0 Z m -2.149,17.03 c 0.717,0 1.435,0.036 2.149,0.107 0.001,0 0.002,0 0.004,0 2.446,0.25 4.833,0.911 7.06,1.955 0.004,0.003 0.008,0.005 0.012,0.007 7.701,3.584 12.629,11.303 12.64,19.797 -0.011,8.494 -4.939,16.213 -12.64,19.798 -0.657,0.305 -1.328,0.579 -2.012,0.818 -0.004,0.002 -0.008,0.004 -0.012,0.006 -0.008,0.003 -0.016,0.006 -0.023,0.008 -0.668,0.233 -1.347,0.432 -2.035,0.598 -0.037,0.009 -0.074,0.018 -0.111,0.027 -0.674,0.16 -1.355,0.288 -2.04,0.384 -0.28,0.04 -0.561,0.074 -0.843,0.103 -0.714,0.078 -1.431,0.12 -2.149,0.127 -0.718,0 -1.435,-0.036 -2.15,-0.107 0,0 -0.001,0 -0.002,0 C 60.255,60.407 57.862,59.744 55.631,58.695 47.93,55.111 43.002,47.391 42.991,38.897 43.002,30.403 47.93,22.684 55.631,19.1 c 0.66,-0.308 1.335,-0.582 2.022,-0.822 0.004,-10e-4 0.008,-0.003 0.012,-0.004 0.684,-0.238 1.38,-0.443 2.085,-0.612 0.005,-10e-4 0.011,-0.003 0.017,-0.004 0.691,-0.166 1.389,-0.298 2.093,-0.396 0.283,-0.04 0.567,-0.074 0.852,-0.103 0.714,-0.078 1.432,-0.12 2.15,-0.127 z"
             id="path23"
             inkscape:connector-curvature="0"
             style="fill:url(#_lgradient_6)" />
          <path
             d="m 55.307,28.186 c -1.652,0 -2.991,1.34 -2.991,2.992 0,1.161 0.673,2.217 1.725,2.709 v 8.408 c 0,0.701 0.565,1.267 1.266,1.267 0.702,0 1.267,-0.566 1.267,-1.267 v -8.41 c 1.051,-0.491 1.724,-1.546 1.725,-2.707 0,-1.652 -1.339,-2.992 -2.992,-2.992 z"
             id="path25"
             inkscape:connector-curvature="0"
             style="fill:#f8a33d" />
          <path
             d="m 53.633,49.437 c 0,-0.925 0.751,-1.675 1.675,-1.675 0.924,0 1.674,0.75 1.674,1.675 0,0.924 -0.75,1.674 -1.674,1.674 -0.924,0 -1.675,-0.75 -1.675,-1.674 z"
             id="path27"
             inkscape:connector-curvature="0"
             style="fill:#d9dde1" />
          <path
             d="m 62.333,37.032 c -0.701,0 -1.266,0.564 -1.266,1.265 V 48.4 c -1.052,0.491 -1.724,1.546 -1.725,2.707 0,1.652 1.339,2.992 2.991,2.992 1.653,0 2.992,-1.34 2.992,-2.992 C 65.324,49.946 64.65,48.891 63.598,48.4 V 38.297 c 0,-0.701 -0.563,-1.265 -1.265,-1.265 z"
             id="path29"
             inkscape:connector-curvature="0"
             style="fill:#f8a33d" />
          <path
             d="m 60.659,33.159 c 0,-0.924 0.75,-1.675 1.674,-1.675 0.924,0 1.675,0.751 1.675,1.675 0,0.924 -0.751,1.674 -1.675,1.674 -0.924,0 -1.674,-0.75 -1.674,-1.674 z"
             id="path31"
             inkscape:connector-curvature="0"
             style="fill:#d9dde1" />
          <path
             d="m 68.204,23.694 c -1.652,0 -2.992,1.339 -2.992,2.991 0.002,1.161 0.674,2.216 1.725,2.707 v 9.596 c 0,0.701 0.566,1.267 1.267,1.267 0.701,0 1.267,-0.566 1.267,-1.267 v -9.596 c 1.051,-0.491 1.723,-1.546 1.725,-2.707 0,-1.652 -1.34,-2.991 -2.992,-2.991 z"
             id="path33"
             inkscape:connector-curvature="0"
             style="fill:#f8a33d" />
          <path
             d="m 66.529,46.334 c 0,0.924 0.751,1.674 1.675,1.674 0.924,0 1.674,-0.75 1.674,-1.674 0,-0.924 -0.75,-1.675 -1.674,-1.675 -0.924,0 -1.675,0.751 -1.675,1.675 z"
             id="path35"
             inkscape:connector-curvature="0"
             style="fill:#d9dde1" />
          <path
             d="m 74.408,36.031 c -0.702,0 -1.267,0.565 -1.267,1.266 v 9.596 c -1.051,0.491 -1.724,1.546 -1.725,2.707 0,1.652 1.339,2.992 2.992,2.992 1.652,0 2.992,-1.34 2.992,-2.992 -0.002,-1.161 -0.675,-2.216 -1.728,-2.707 v -9.596 c 0,-0.701 -0.563,-1.266 -1.264,-1.266 z"
             id="path37"
             inkscape:connector-curvature="0"
             style="fill:#f8a33d" />
          <path
             d="m 72.732,30.469 c 0,-0.925 0.751,-1.675 1.675,-1.675 0.924,0 1.675,0.75 1.675,1.675 0,0.924 -0.751,1.674 -1.675,1.674 -0.924,0 -1.675,-0.75 -1.675,-1.674 z"
             id="path39"
             inkscape:connector-curvature="0"
             style="fill:#d9dde1" />
        </g>
      </g>
      <g
         transform="matrix(3.78,0,0,3.78,3.9574475,74.545)"
         id="g46"
         style="fill:#fc9424;fill-opacity:1">
        <text
           transform="translate(0,8.551)"
           style="font-style:normal;font-weight:400;font-size:8px;font-family:'Open Sans';fill:#fc9424;fill-opacity:1;stroke:none"
           id="text44">
          <tspan
             style="font-style:normal;font-variant:normal;font-weight:normal;font-stretch:normal;font-family:Lato;-inkscape-font-specification:Lato"
             id="tspan867">OBOLUS</tspan>
        </text>
      </g>
    </g>
  </g>
</svg>
